<svg version="1.1" xmlns="http://www.w3.org/2000/svg" xmlns:xlink="http://www.w3.org/1999/xlink" width="200" height="200" viewBox="0,0,200,200"><g transform="translate(-140,-80)"><g data-paper-data="{&quot;isPaintingLayer&quot;:true}" fill-rule="nonzero" stroke-linecap="butt" stroke-linejoin="miter" stroke-miterlimit="10" stroke-dasharray="" stroke-dashoffset="0" style="mix-blend-mode: normal"><g stroke="#ffffff" stroke-width="5"><path d="M328.53409,130.04831c7.71902,29.16104 -26.43971,63.49905 -76.29568,76.69609c-49.85596,13.19705 -103.38945,12.76461 -101.82766,-18.414c1.50914,-30.12759 24.01863,-73.99041 73.8746,-87.18746c49.85597,-13.19705 96.52972,-0.25567 104.24875,28.90536z" fill="#000000"/><path d="M175.71607,258.92669c1.57503,-8.32605 8.92399,-47.17475 8.92399,-47.17475l36.89248,-18.80016c0,0 -3.35267,46.72557 -4.00821,55.86166c-0.2131,2.96987 -2.32572,6.36465 -5.29216,7.08471c-9.11955,2.21364 -28.29751,6.86881 -33.18949,8.05626c-2.22527,0.54015 -3.89373,-2.0298 -3.32662,-5.02772z" fill="#000000"/><path d="M225.12035,250.37523c0.23095,-7.39041 1.47509,-47.20286 1.47509,-47.20286l38.33381,-12.50893c0,0 4.33105,42.07307 5.1475,50.00429c0.25489,2.47606 -0.65885,5.10981 -2.598,5.50451c-8.77988,1.78706 -33.52125,6.82291 -38.77363,7.89198c-1.91225,0.38922 -3.65566,-1.42062 -3.58478,-3.68899z" fill="#000000"/><path d="M218.35945,224.52869l-0.28965,-24.62432h10.62115v24.62432c0,0 -1.5613,-2.02754 -3.35184,-2.02754c-1.73231,0 -3.67921,0 -4.63438,0c-1.11574,0 -2.34527,2.02754 -2.34527,2.02754z" fill="#000000"/><path d="M213.19358,178.6293c-3.95654,14.51456 -16.76473,23.66384 -28.60789,20.4355c-11.84316,-3.22834 -18.23654,-17.6118 -14.28,-32.12635c3.95654,-14.51456 16.76472,-23.66384 28.60789,-20.4355c11.84317,3.22834 18.23654,17.6118 14.28,32.12635z" fill="#ffffff"/><path d="M280.37896,181.3098c-17.72161,8.40973 -37.65051,3.50502 -44.51243,-10.95494c-6.86193,-14.45997 1.9416,-32.99951 19.66322,-41.40923c17.72161,-8.40972 37.6505,-3.50503 44.51243,10.95494c6.86192,14.45997 -1.9416,32.99952 -19.66321,41.40924z" fill="#ffffff"/></g><g stroke-width="0"><path d="M328.53409,130.04831c7.71902,29.16104 -26.43971,63.49905 -76.29568,76.69609c-49.85596,13.19705 -103.38945,12.76461 -101.82766,-18.414c1.50914,-30.12759 24.01863,-73.99041 73.8746,-87.18746c49.85597,-13.19705 96.52972,-0.25567 104.24875,28.90536z" fill="#000000" stroke="none"/><path d="M175.71607,258.92669c1.57503,-8.32605 8.92399,-47.17475 8.92399,-47.17475l36.89248,-18.80016c0,0 -3.35267,46.72557 -4.00821,55.86166c-0.2131,2.96987 -2.32572,6.36465 -5.29216,7.08471c-9.11955,2.21364 -28.29751,6.86881 -33.18949,8.05626c-2.22527,0.54015 -3.89373,-2.0298 -3.32662,-5.02772z" fill="#000000" stroke="#000000"/><path d="M225.12035,250.37523c0.23095,-7.39041 1.47509,-47.20286 1.47509,-47.20286l38.33381,-12.50893c0,0 4.33105,42.07307 5.1475,50.00429c0.25489,2.47606 -0.65885,5.10981 -2.598,5.50451c-8.77988,1.78706 -33.52125,6.82291 -38.77363,7.89198c-1.91225,0.38922 -3.65566,-1.42062 -3.58478,-3.68899z" fill="#000000" stroke="#000000"/><path d="M218.35945,224.52869l-0.28965,-24.62432h10.62115v24.62432c0,0 -1.5613,-2.02754 -3.35184,-2.02754c-1.73231,0 -3.67921,0 -4.63438,0c-1.11574,0 -2.34527,2.02754 -2.34527,2.02754z" fill="#000000" stroke="#000000"/><path d="M213.19358,178.6293c-3.95654,14.51456 -16.76473,23.66384 -28.60789,20.4355c-11.84316,-3.22834 -18.23654,-17.6118 -14.28,-32.12635c3.95654,-14.51456 16.76472,-23.66384 28.60789,-20.4355c11.84317,3.22834 18.23654,17.6118 14.28,32.12635z" fill="#ffffff" stroke="#000000"/><path d="M280.37896,181.3098c-17.72161,8.40973 -37.65051,3.50502 -44.51243,-10.95494c-6.86193,-14.45997 1.9416,-32.99951 19.66322,-41.40923c17.72161,-8.40972 37.6505,-3.50503 44.51243,10.95494c6.86192,14.45997 -1.9416,32.99952 -19.66321,41.40924z" fill="#ffffff" stroke="#000000"/></g><path d="M140,280v-200h200v200z" fill="none" stroke="none" stroke-width="0"/></g></g></svg>